<svg id="svg" version="1.1" xmlns="http://www.w3.org/2000/svg" xmlns:xlink="http://www.w3.org/1999/xlink" width="16" height="16" viewBox="0, 0, 400,400"><g id="svgg"><path id="path0" d="M232.179 95.720 C 229.817 97.095,227.033 100.175,225.824 102.752 C 225.243 103.988,224.625 105.270,224.452 105.600 C 224.278 105.930,223.301 106.825,222.281 107.589 C 220.664 108.801,220.286 109.384,219.321 112.157 C 218.488 114.550,217.747 115.836,216.328 117.356 C 215.290 118.467,213.870 120.551,213.171 121.988 C 212.472 123.425,211.186 125.243,210.313 126.028 C 208.970 127.236,208.519 128.092,207.383 131.595 C 206.225 135.163,205.769 136.016,204.087 137.767 C 203.013 138.885,201.540 140.753,200.814 141.917 C 200.089 143.081,198.720 144.567,197.774 145.218 C 196.828 145.869,195.662 146.951,195.184 147.623 C 194.705 148.295,193.590 149.301,192.705 149.860 L 191.096 150.876 188.544 149.791 C 185.263 148.397,184.314 147.227,183.434 143.490 C 182.357 138.917,182.689 126.746,183.976 123.600 C 185.386 120.155,186.371 116.919,187.260 112.816 L 188.080 109.032 187.196 108.316 C 185.872 107.244,182.000 107.915,182.000 109.215 C 182.000 109.911,179.455 112.458,178.038 113.181 C 176.478 113.977,175.324 115.098,174.629 116.493 C 174.385 116.981,173.200 118.065,171.993 118.903 C 166.970 122.392,159.482 129.744,157.399 133.232 C 154.732 137.699,153.997 138.800,153.681 138.800 C 152.928 138.800,151.871 141.594,150.623 146.886 C 148.427 156.192,148.025 157.729,147.398 159.200 C 145.362 163.981,144.711 186.554,146.400 193.800 C 146.840 195.687,147.200 198.486,147.200 200.021 C 147.200 201.581,147.552 204.082,148.000 205.697 C 148.488 207.457,148.803 209.836,148.808 211.792 C 148.812 213.556,149.076 216.440,149.394 218.200 C 149.743 220.134,149.978 224.067,149.986 228.140 L 150.000 234.880 148.607 236.273 C 147.373 237.507,147.064 237.631,145.907 237.356 C 144.267 236.966,143.284 236.955,141.948 237.311 C 140.389 237.726,139.155 236.535,136.961 232.494 C 135.918 230.572,134.105 227.934,132.932 226.632 C 131.760 225.329,130.800 224.069,130.800 223.832 C 130.799 223.035,128.397 218.312,127.374 217.096 C 125.913 215.360,124.944 213.264,124.641 211.190 C 124.496 210.194,123.876 208.621,123.263 207.695 L 122.147 206.010 120.874 207.324 L 119.600 208.638 119.619 219.419 C 119.646 233.979,120.403 240.484,122.466 243.857 C 124.081 246.498,124.572 247.899,125.154 251.519 C 125.690 254.854,127.089 257.807,129.148 259.948 C 131.248 262.132,131.674 262.958,133.387 268.189 L 134.769 272.406 133.953 274.303 C 133.504 275.346,132.704 278.090,132.175 280.400 C 130.761 286.575,130.448 287.544,128.956 290.360 C 128.210 291.768,127.600 293.185,127.600 293.509 C 127.600 293.832,127.048 296.445,126.373 299.316 C 125.327 303.763,125.092 305.782,124.781 312.967 C 124.581 317.605,124.381 321.760,124.337 322.200 C 123.994 325.650,124.431 328.421,125.500 329.562 C 128.698 332.978,129.973 330.811,132.424 317.800 C 132.672 316.480,133.382 314.590,134.000 313.600 C 135.414 311.337,136.203 308.976,137.409 303.399 C 138.440 298.631,139.122 296.717,140.597 294.455 C 141.221 293.498,142.046 290.745,143.007 286.415 C 145.735 274.113,144.625 274.646,167.900 274.474 L 185.200 274.347 186.500 273.023 C 187.215 272.295,188.191 271.170,188.670 270.523 C 189.203 269.801,190.957 268.662,193.209 267.574 C 196.201 266.128,197.135 265.450,198.272 263.901 C 199.039 262.856,200.483 261.416,201.480 260.701 C 202.476 259.985,204.701 257.600,206.422 255.400 C 208.144 253.200,210.306 250.456,211.228 249.303 C 214.070 245.747,212.394 244.800,203.256 244.800 C 195.615 244.800,193.284 244.239,189.968 241.602 C 188.776 240.654,186.540 239.299,185.000 238.590 C 181.741 237.091,181.329 236.680,179.592 233.200 C 178.878 231.770,177.859 230.081,177.328 229.446 L 176.361 228.293 177.281 227.292 C 179.362 225.027,180.981 224.689,191.400 224.345 C 203.398 223.950,203.365 223.956,204.929 221.738 C 206.885 218.963,208.287 218.349,213.400 218.031 C 218.009 217.744,222.113 216.413,222.643 215.032 C 222.935 214.272,226.319 212.001,227.169 211.996 C 228.317 211.989,231.760 210.155,234.439 208.125 C 235.891 207.024,238.009 205.789,239.147 205.380 C 240.940 204.735,241.376 204.352,242.418 202.507 C 243.275 200.989,244.246 199.977,245.804 198.980 C 247.005 198.212,248.244 197.092,248.556 196.491 C 249.361 194.945,250.884 193.620,253.245 192.412 C 255.610 191.203,255.716 190.923,254.234 189.816 C 253.189 189.035,252.447 188.991,236.871 188.789 C 216.886 188.529,218.168 188.848,212.023 182.605 C 208.062 178.579,207.919 178.374,208.477 177.505 C 209.228 176.335,212.226 174.802,213.785 174.791 C 215.742 174.777,218.087 173.466,219.719 171.474 C 222.117 168.546,223.305 168.305,236.373 168.097 C 248.575 167.903,248.481 167.923,250.255 165.113 C 251.675 162.863,253.121 162.147,256.746 161.899 C 260.290 161.656,261.843 160.995,265.668 158.100 C 267.061 157.047,269.100 155.848,270.200 155.436 C 272.906 154.423,273.165 154.174,274.459 151.326 C 275.151 149.806,276.119 148.445,276.973 147.794 C 278.764 146.428,279.834 143.198,281.807 133.200 C 282.611 129.130,283.522 125.029,283.833 124.087 C 284.441 122.248,283.555 117.442,282.084 114.600 C 281.742 113.940,281.159 112.410,280.787 111.200 C 280.158 109.152,279.963 108.927,277.956 107.948 C 276.314 107.147,275.412 106.336,274.175 104.550 L 272.550 102.205 268.719 101.377 C 264.334 100.430,263.194 99.808,261.804 97.607 C 260.147 94.982,260.315 95.012,246.400 94.888 L 233.800 94.777 232.179 95.720 " stroke="none" fill="#05080e" fill-rule="evenodd"></path><path id="path1" d="M156.304 28.286 C 154.133 28.407,153.527 28.588,153.190 29.218 C 152.960 29.648,152.522 30.000,152.217 30.000 C 151.345 30.000,149.354 31.861,148.803 33.192 L 148.303 34.400 141.951 34.400 C 136.232 34.400,135.524 34.476,134.836 35.164 C 134.415 35.585,133.409 36.243,132.600 36.627 C 131.586 37.108,130.867 37.865,130.285 39.062 L 129.441 40.800 125.934 40.800 C 122.838 40.800,122.378 40.893,122.000 41.600 C 121.765 42.040,121.322 42.400,121.017 42.400 C 120.158 42.400,118.158 44.253,117.624 45.543 C 117.158 46.666,117.040 46.708,113.857 46.875 C 109.598 47.099,109.600 47.097,109.600 50.424 L 109.600 53.200 104.500 53.240 C 98.132 53.290,97.432 53.462,97.297 55.016 C 97.240 55.667,97.095 56.957,96.975 57.883 L 96.756 59.566 93.878 59.683 L 91.000 59.800 90.882 62.700 L 90.765 65.600 88.356 65.600 C 84.718 65.600,84.400 65.891,84.400 69.214 L 84.400 72.000 81.820 72.000 C 74.359 72.000,72.000 74.359,72.000 81.820 L 72.000 84.400 69.214 84.400 C 65.891 84.400,65.600 84.718,65.600 88.356 L 65.600 90.765 62.700 90.882 L 59.800 91.000 59.683 93.878 L 59.566 96.756 57.883 96.975 C 56.957 97.095,55.667 97.240,55.016 97.297 C 53.462 97.432,53.290 98.132,53.240 104.500 L 53.200 109.600 50.424 109.600 C 47.123 109.600,47.164 109.551,46.899 113.811 C 46.698 117.032,46.650 117.165,45.537 117.626 C 44.252 118.158,42.400 120.160,42.400 121.017 C 42.400 121.322,42.040 121.765,41.600 122.000 C 40.893 122.378,40.800 122.838,40.800 125.934 L 40.800 129.441 39.062 130.285 C 37.865 130.867,37.108 131.586,36.627 132.600 C 36.243 133.409,35.585 134.415,35.164 134.836 C 34.476 135.524,34.400 136.232,34.400 141.951 L 34.400 148.303 33.192 148.803 C 31.885 149.345,30.000 151.340,30.000 152.182 C 30.000 152.468,29.595 152.971,29.100 153.300 L 28.200 153.898 28.200 200.000 L 28.200 246.102 29.100 246.700 C 29.595 247.029,30.000 247.532,30.000 247.818 C 30.000 248.660,31.885 250.655,33.192 251.197 L 34.400 251.697 34.400 258.049 C 34.400 263.768,34.476 264.476,35.164 265.164 C 35.585 265.585,36.243 266.591,36.627 267.400 C 37.108 268.414,37.865 269.133,39.062 269.715 L 40.800 270.559 40.800 274.066 C 40.800 277.162,40.893 277.622,41.600 278.000 C 42.040 278.235,42.400 278.678,42.400 278.983 C 42.400 279.840,44.252 281.842,45.537 282.374 C 46.655 282.837,46.697 282.959,46.906 286.302 C 47.163 290.420,47.498 290.800,50.876 290.800 L 53.200 290.800 53.240 295.700 C 53.297 302.670,53.227 302.523,56.698 302.966 L 59.568 303.332 59.684 306.166 L 59.800 309.000 62.700 309.118 L 65.600 309.235 65.600 311.644 C 65.600 315.282,65.891 315.600,69.214 315.600 L 72.000 315.600 72.000 318.180 C 72.000 325.641,74.359 328.000,81.820 328.000 L 84.400 328.000 84.400 330.786 C 84.400 334.112,84.717 334.400,88.374 334.400 L 90.800 334.400 90.800 337.186 C 90.800 340.479,91.133 340.800,94.556 340.800 C 96.992 340.800,96.997 340.808,97.296 344.784 C 97.430 346.566,97.951 346.709,104.500 346.760 L 109.600 346.800 109.600 349.586 C 109.600 352.981,109.875 353.200,114.125 353.200 C 117.061 353.200,117.110 353.217,117.603 354.408 C 118.154 355.739,120.145 357.600,121.017 357.600 C 121.322 357.600,121.765 357.960,122.000 358.400 C 122.378 359.107,122.838 359.200,125.934 359.200 L 129.441 359.200 130.285 360.938 C 130.867 362.135,131.586 362.892,132.600 363.373 C 133.409 363.757,134.415 364.415,134.836 364.836 C 135.524 365.524,136.232 365.600,141.951 365.600 L 148.303 365.600 148.803 366.808 C 149.362 368.156,151.349 370.000,152.243 370.000 C 152.563 370.000,152.927 370.266,153.052 370.592 C 153.562 371.921,156.052 371.996,200.240 371.998 C 244.723 372.000,246.427 371.948,246.955 370.572 C 247.076 370.257,247.437 370.000,247.757 370.000 C 248.651 370.000,250.638 368.156,251.197 366.808 L 251.697 365.600 258.049 365.600 C 263.768 365.600,264.476 365.524,265.164 364.836 C 265.585 364.415,266.591 363.757,267.400 363.373 C 268.414 362.892,269.133 362.135,269.715 360.938 L 270.559 359.200 274.066 359.200 C 277.162 359.200,277.622 359.107,278.000 358.400 C 278.235 357.960,278.678 357.600,278.983 357.600 C 279.855 357.600,281.846 355.739,282.397 354.408 C 282.897 353.201,282.900 353.200,286.220 353.200 C 290.421 353.200,290.800 352.886,290.800 349.410 L 290.800 346.877 296.381 346.738 C 302.772 346.580,302.706 346.614,303.054 343.282 L 303.314 340.800 305.843 340.800 C 308.881 340.800,309.200 340.422,309.200 336.826 L 309.200 334.400 311.920 334.400 C 315.329 334.400,315.600 334.129,315.600 330.720 L 315.600 328.000 318.180 328.000 C 325.641 328.000,328.000 325.641,328.000 318.180 L 328.000 315.600 330.720 315.600 C 334.129 315.600,334.400 315.329,334.400 311.920 L 334.400 309.200 336.826 309.200 C 340.422 309.200,340.800 308.881,340.800 305.843 L 340.800 303.314 343.282 303.054 C 346.614 302.706,346.580 302.772,346.738 296.381 L 346.877 290.800 349.410 290.800 C 352.886 290.800,353.200 290.421,353.200 286.220 C 353.200 282.900,353.201 282.897,354.408 282.397 C 355.739 281.846,357.600 279.855,357.600 278.983 C 357.600 278.678,357.960 278.235,358.400 278.000 C 359.107 277.622,359.200 277.162,359.200 274.066 L 359.200 270.559 360.938 269.715 C 362.135 269.133,362.892 268.414,363.373 267.400 C 363.757 266.591,364.415 265.585,364.836 265.164 C 365.524 264.476,365.600 263.768,365.600 258.049 L 365.600 251.697 366.808 251.197 C 368.156 250.638,370.000 248.651,370.000 247.757 C 370.000 247.437,370.257 247.076,370.572 246.955 C 371.948 246.427,372.000 244.723,371.998 200.240 C 371.996 156.052,371.921 153.562,370.592 153.052 C 370.266 152.927,370.000 152.563,370.000 152.243 C 370.000 151.349,368.156 149.362,366.808 148.803 L 365.600 148.303 365.600 141.951 C 365.600 136.232,365.524 135.524,364.836 134.836 C 364.415 134.415,363.757 133.409,363.373 132.600 C 362.892 131.586,362.135 130.867,360.938 130.285 L 359.200 129.441 359.200 125.934 C 359.200 122.838,359.107 122.378,358.400 122.000 C 357.960 121.765,357.600 121.322,357.600 121.017 C 357.600 120.145,355.739 118.154,354.408 117.603 C 353.217 117.110,353.200 117.061,353.200 114.125 C 353.200 109.875,352.981 109.600,349.586 109.600 L 346.800 109.600 346.760 104.500 C 346.709 97.951,346.566 97.430,344.784 97.296 C 340.773 96.995,340.800 97.015,340.800 94.410 C 340.800 91.276,340.295 90.800,336.971 90.800 L 334.400 90.800 334.400 88.374 C 334.400 84.717,334.112 84.400,330.786 84.400 L 328.000 84.400 328.000 81.820 C 328.000 74.359,325.641 72.000,318.180 72.000 L 315.600 72.000 315.600 69.214 C 315.600 65.891,315.282 65.600,311.644 65.600 L 309.235 65.600 309.118 62.700 L 309.000 59.800 306.166 59.684 L 303.332 59.568 302.966 56.698 C 302.523 53.227,302.670 53.297,295.700 53.240 L 290.800 53.200 290.800 50.876 C 290.800 47.498,290.420 47.163,286.302 46.906 C 282.959 46.697,282.837 46.655,282.374 45.537 C 281.842 44.252,279.840 42.400,278.983 42.400 C 278.678 42.400,278.235 42.040,278.000 41.600 C 277.622 40.893,277.162 40.800,274.066 40.800 L 270.559 40.800 269.715 39.062 C 269.133 37.865,268.414 37.108,267.400 36.627 C 266.591 36.243,265.585 35.585,265.164 35.164 C 264.476 34.476,263.768 34.400,258.049 34.400 L 251.697 34.400 251.197 33.192 C 250.655 31.885,248.660 30.000,247.818 30.000 C 247.532 30.000,247.029 29.595,246.700 29.100 L 246.103 28.200 202.551 28.168 C 178.598 28.150,157.787 28.203,156.304 28.286 M262.395 93.605 C 263.382 94.158,264.552 95.174,264.995 95.864 C 265.730 97.010,271.075 99.227,273.046 99.205 C 273.805 99.196,275.606 100.825,276.628 102.445 C 277.295 103.501,278.356 104.370,279.976 105.188 C 281.357 105.885,282.818 107.010,283.474 107.880 C 284.093 108.703,285.166 109.878,285.859 110.493 C 290.418 114.540,289.912 135.014,285.123 140.258 C 284.692 140.730,283.981 142.516,283.543 144.227 C 282.329 148.964,280.342 152.000,278.455 152.000 C 278.223 152.000,277.561 152.807,276.983 153.793 C 275.875 155.684,273.885 157.600,273.031 157.600 C 271.850 157.600,269.966 158.951,269.357 160.234 C 268.265 162.536,266.810 163.267,262.470 163.693 C 258.154 164.116,257.026 164.576,254.296 167.023 C 250.959 170.014,249.078 170.400,237.849 170.400 C 227.523 170.400,224.800 170.895,224.800 172.774 C 224.800 173.996,223.515 174.682,219.302 175.708 C 217.048 176.257,214.734 177.014,214.159 177.390 L 213.115 178.074 214.436 179.437 C 215.162 180.187,215.986 180.800,216.265 180.800 C 216.963 180.800,219.600 183.492,219.600 184.204 C 219.600 186.047,220.793 186.188,238.181 186.400 C 254.333 186.597,254.628 186.615,256.314 187.515 C 260.242 189.613,259.799 192.667,255.200 195.200 C 253.470 196.153,252.415 197.047,251.897 198.000 C 250.936 199.767,249.778 200.928,248.016 201.893 C 247.254 202.310,246.076 203.450,245.398 204.426 C 244.511 205.700,243.400 206.594,241.450 207.600 C 239.459 208.627,238.569 209.350,238.112 210.313 C 237.130 212.378,235.599 213.199,231.609 213.799 C 227.322 214.443,227.570 214.307,225.800 216.973 C 224.029 219.642,223.521 219.828,216.511 220.371 C 209.762 220.894,209.007 221.130,208.242 222.962 C 207.064 225.781,205.619 226.132,194.180 226.381 C 185.519 226.570,184.015 226.696,183.086 227.306 L 182.011 228.011 183.048 230.706 C 183.618 232.188,184.168 233.682,184.270 234.027 C 184.376 234.385,186.022 235.239,188.104 236.017 C 191.735 237.373,194.400 239.316,194.400 240.608 C 194.400 241.887,197.042 242.400,203.624 242.400 C 216.042 242.400,222.529 245.853,216.921 249.479 C 215.339 250.501,214.208 251.882,212.980 254.290 C 212.263 255.696,211.363 256.729,210.232 257.445 C 209.199 258.099,208.173 259.221,207.575 260.352 C 207.024 261.392,206.007 262.544,205.238 262.997 C 203.739 263.880,201.918 265.624,200.446 267.585 C 199.831 268.406,198.333 269.392,196.223 270.367 C 194.203 271.300,192.580 272.356,191.974 273.129 C 191.262 274.039,190.181 274.658,188.027 275.391 L 185.060 276.400 169.230 276.401 C 150.613 276.403,151.324 276.258,150.492 280.238 C 150.007 282.555,148.785 285.372,147.192 287.846 C 146.750 288.532,145.758 291.862,144.985 295.246 C 143.983 299.642,143.071 302.486,141.795 305.200 C 140.077 308.852,138.409 315.023,138.393 317.781 C 138.378 320.362,137.222 324.444,136.034 326.112 C 135.373 327.040,134.354 328.690,133.769 329.778 C 131.806 333.435,128.432 336.565,127.433 335.657 C 126.322 334.647,125.125 334.053,122.824 333.370 C 118.456 332.073,117.357 329.849,117.746 323.095 C 117.888 320.623,118.177 315.450,118.388 311.600 C 118.853 303.106,119.238 301.553,121.470 299.156 C 122.245 298.324,122.558 297.308,123.012 294.156 C 123.325 291.980,123.854 288.670,124.187 286.800 C 124.520 284.930,124.888 282.747,125.005 281.948 C 125.122 281.149,125.924 279.403,126.787 278.068 C 130.222 272.754,129.961 269.198,125.833 265.069 C 125.355 264.591,124.544 262.893,124.030 261.295 C 123.368 259.234,122.653 257.933,121.570 256.817 C 119.385 254.566,118.880 253.366,117.802 247.883 C 116.224 239.851,115.736 237.823,115.067 236.529 C 111.824 230.258,111.722 209.272,114.899 201.864 L 115.729 199.929 117.515 200.196 C 119.188 200.447,119.395 200.372,120.797 199.003 L 122.294 197.542 123.500 199.005 C 124.164 199.810,124.802 201.055,124.918 201.771 C 125.271 203.950,127.999 209.223,129.415 210.467 C 130.148 211.111,131.011 212.394,131.333 213.319 C 133.824 220.484,134.635 222.421,135.220 222.606 C 136.356 222.967,137.754 224.767,139.200 227.730 C 141.769 232.996,143.477 231.350,143.070 224.000 C 140.234 172.765,141.260 147.248,146.341 142.653 C 146.806 142.232,147.695 140.208,148.375 138.018 C 149.697 133.763,150.536 132.429,152.785 131.009 C 153.766 130.390,154.667 129.287,155.436 127.766 C 156.382 125.890,156.971 125.262,158.584 124.400 C 159.988 123.649,160.806 122.868,161.384 121.727 C 162.570 119.383,163.091 118.875,165.454 117.757 C 166.906 117.070,167.936 116.220,168.703 115.076 C 169.321 114.154,170.680 112.840,171.723 112.156 C 172.766 111.472,174.453 110.066,175.473 109.032 C 177.618 106.856,179.448 105.834,182.688 105.003 C 184.967 104.418,185.220 104.220,187.507 101.239 C 189.339 98.851,190.797 98.846,193.989 101.219 L 196.784 103.298 195.954 104.465 C 195.497 105.106,194.591 107.199,193.939 109.115 C 193.288 111.032,192.311 113.394,191.769 114.365 C 188.218 120.724,186.999 144.217,190.081 146.898 C 191.008 147.704,191.600 147.495,191.600 146.360 C 191.600 145.097,193.114 142.475,194.286 141.707 C 196.660 140.152,198.681 137.099,199.967 133.126 C 200.230 132.316,201.170 130.997,202.057 130.196 C 203.059 129.291,203.910 128.032,204.305 126.870 C 205.035 124.724,206.943 121.634,208.795 119.600 C 210.369 117.870,210.924 116.813,211.734 113.994 C 212.360 111.815,214.581 108.407,215.386 108.392 C 215.614 108.388,216.340 107.463,217.000 106.337 C 217.660 105.211,219.253 103.190,220.541 101.845 C 221.850 100.478,223.315 98.430,223.865 97.200 C 225.359 93.858,225.365 93.849,226.830 93.091 C 228.086 92.442,229.551 92.392,244.400 92.491 L 260.600 92.600 262.395 93.605 " stroke="none" fill="#fbfcfb" fill-rule="evenodd"></path><path id="path2" d="M244.700 93.100 C 234.874 93.208,234.400 93.249,234.400 93.976 C 234.400 94.707,234.913 94.744,246.700 94.869 C 260.281 95.014,260.153 94.990,261.804 97.607 C 263.194 99.808,264.334 100.430,268.719 101.377 L 272.550 102.205 274.175 104.550 C 275.412 106.336,276.314 107.147,277.956 107.948 C 279.963 108.927,280.158 109.152,280.787 111.200 C 281.159 112.410,281.742 113.940,282.084 114.600 C 283.555 117.442,284.441 122.248,283.833 124.087 C 283.522 125.029,282.611 129.130,281.807 133.200 C 279.834 143.198,278.764 146.428,276.973 147.794 C 276.119 148.445,275.151 149.806,274.459 151.326 C 273.165 154.174,272.906 154.423,270.200 155.436 C 269.100 155.848,267.061 157.047,265.668 158.100 C 261.843 160.995,260.290 161.656,256.746 161.899 C 253.121 162.147,251.675 162.863,250.255 165.113 C 248.481 167.923,248.575 167.903,236.373 168.097 C 223.305 168.305,222.117 168.546,219.719 171.474 C 218.087 173.466,215.742 174.777,213.785 174.791 C 212.226 174.802,209.228 176.335,208.477 177.505 C 207.919 178.374,208.062 178.579,212.023 182.605 C 218.168 188.848,216.886 188.529,236.871 188.789 C 252.626 188.993,253.178 189.027,254.271 189.843 C 255.753 190.950,255.662 191.176,253.245 192.412 C 250.884 193.620,249.361 194.945,248.556 196.491 C 248.244 197.092,247.005 198.212,245.804 198.980 C 244.246 199.977,243.275 200.989,242.418 202.507 C 241.376 204.352,240.940 204.735,239.147 205.380 C 238.009 205.789,235.891 207.024,234.439 208.125 C 231.760 210.155,228.317 211.989,227.169 211.996 C 226.319 212.001,222.935 214.272,222.643 215.032 C 222.113 216.413,218.009 217.744,213.400 218.031 C 208.287 218.349,206.885 218.963,204.929 221.738 C 203.365 223.956,203.398 223.950,191.400 224.345 C 180.981 224.689,179.362 225.027,177.281 227.292 L 176.361 228.293 177.328 229.446 C 177.859 230.081,178.878 231.770,179.592 233.200 C 181.329 236.680,181.741 237.091,185.000 238.590 C 186.540 239.299,188.776 240.654,189.968 241.602 C 193.284 244.239,195.615 244.800,203.256 244.800 C 212.394 244.800,214.070 245.747,211.228 249.303 C 210.306 250.456,208.144 253.200,206.422 255.400 C 204.701 257.600,202.476 259.985,201.480 260.701 C 200.483 261.416,199.039 262.856,198.272 263.901 C 197.135 265.450,196.201 266.128,193.209 267.574 C 190.957 268.662,189.203 269.801,188.670 270.523 C 188.191 271.170,187.215 272.295,186.500 273.023 L 185.200 274.347 167.900 274.474 C 144.625 274.646,145.735 274.113,143.007 286.415 C 142.046 290.745,141.221 293.498,140.597 294.455 C 139.122 296.717,138.440 298.631,137.409 303.399 C 136.203 308.976,135.414 311.337,134.000 313.600 C 133.382 314.590,132.672 316.480,132.424 317.800 C 130.483 328.101,129.217 331.513,127.532 330.978 C 125.761 330.416,125.440 333.274,127.059 335.197 L 128.118 336.456 130.239 334.362 C 131.405 333.210,132.919 331.263,133.603 330.034 C 134.288 328.805,135.385 327.040,136.042 326.112 C 137.221 324.446,138.378 320.346,138.393 317.781 C 138.409 315.023,140.077 308.852,141.795 305.200 C 143.071 302.486,143.983 299.642,144.985 295.246 C 145.758 291.862,146.750 288.532,147.192 287.846 C 148.721 285.471,149.988 282.589,150.464 280.400 C 150.804 278.834,151.323 277.822,152.263 276.888 L 153.584 275.577 170.415 275.613 C 189.185 275.654,190.210 275.536,191.979 273.143 C 192.566 272.348,194.077 271.358,196.193 270.381 C 198.329 269.394,199.829 268.408,200.446 267.585 C 201.918 265.624,203.739 263.880,205.238 262.997 C 206.007 262.544,207.024 261.392,207.575 260.352 C 208.173 259.221,209.199 258.099,210.232 257.445 C 211.363 256.729,212.263 255.696,212.980 254.290 C 214.208 251.882,215.339 250.501,216.921 249.479 C 219.598 247.748,219.073 245.411,215.666 243.894 C 213.942 243.127,213.154 243.071,205.327 243.156 C 197.132 243.245,196.840 243.221,196.413 242.424 C 196.170 241.971,195.717 241.600,195.405 241.600 C 195.093 241.600,194.531 240.954,194.156 240.164 C 193.335 238.433,191.605 237.285,187.563 235.788 L 184.525 234.663 183.304 231.432 L 182.083 228.200 183.474 226.849 L 184.865 225.498 192.733 225.773 C 205.503 226.218,206.851 225.970,208.301 222.905 C 208.803 221.844,209.338 221.350,210.200 221.154 C 210.860 221.004,212.300 220.660,213.400 220.389 C 214.500 220.118,216.906 219.933,218.748 219.977 C 222.983 220.079,224.037 219.630,225.800 216.973 C 227.570 214.307,227.322 214.443,231.609 213.799 C 235.599 213.199,237.130 212.378,238.112 210.313 C 238.569 209.350,239.459 208.627,241.450 207.600 C 243.400 206.594,244.511 205.700,245.398 204.426 C 246.076 203.450,247.254 202.310,248.016 201.893 C 249.778 200.928,250.936 199.767,251.897 198.000 C 252.415 197.047,253.470 196.153,255.200 195.200 C 259.693 192.726,260.248 189.546,256.514 187.669 C 255.079 186.948,254.148 186.919,238.736 187.109 L 222.473 187.309 221.036 185.914 C 220.246 185.147,219.600 184.318,219.600 184.073 C 219.600 183.481,216.902 180.800,216.306 180.800 C 216.049 180.800,215.249 180.229,214.529 179.531 L 213.219 178.262 214.600 176.921 C 215.659 175.892,216.205 175.636,216.941 175.821 C 219.244 176.399,224.768 174.309,224.825 172.838 C 224.838 172.487,225.661 171.608,226.652 170.885 L 228.455 169.570 239.158 169.619 C 251.224 169.675,251.334 169.655,254.672 166.749 C 257.894 163.945,258.948 163.518,262.800 163.455 C 266.694 163.392,268.212 162.646,269.357 160.234 C 269.966 158.951,271.850 157.600,273.031 157.600 C 273.885 157.600,275.875 155.684,276.983 153.793 C 277.561 152.807,278.223 152.000,278.455 152.000 C 280.342 152.000,282.329 148.964,283.543 144.227 C 283.981 142.516,284.692 140.730,285.123 140.258 C 289.912 135.014,290.418 114.540,285.859 110.493 C 285.166 109.878,284.093 108.703,283.474 107.880 C 282.818 107.010,281.357 105.885,279.976 105.188 C 278.356 104.370,277.295 103.501,276.628 102.445 C 275.606 100.825,273.805 99.196,273.046 99.205 C 271.083 99.227,265.730 97.010,265.000 95.872 C 263.615 93.713,261.463 92.800,258.000 92.900 C 256.350 92.947,250.365 93.037,244.700 93.100 M193.680 102.080 C 193.416 102.344,193.200 102.853,193.200 103.210 C 193.200 104.271,191.524 105.477,189.658 105.759 C 188.700 105.904,187.373 106.304,186.710 106.647 L 185.504 107.270 186.752 108.029 C 188.229 108.927,188.194 108.549,187.214 113.037 C 186.355 116.975,185.363 120.209,183.976 123.600 C 183.186 125.531,183.055 126.696,182.899 133.134 C 182.636 144.055,183.664 147.625,187.579 149.391 C 189.771 150.379,189.778 150.359,189.043 144.633 C 187.569 133.140,188.778 119.723,191.769 114.365 C 192.311 113.394,193.288 111.032,193.939 109.115 C 194.591 107.199,195.503 105.098,195.967 104.446 L 196.810 103.262 195.643 102.431 C 194.275 101.456,194.299 101.461,193.680 102.080 M120.852 198.939 C 119.219 200.633,118.663 202.991,119.282 205.600 C 119.854 208.012,120.088 208.184,121.195 207.005 L 122.140 205.999 123.259 207.689 C 123.874 208.619,124.496 210.194,124.641 211.190 C 124.944 213.264,125.913 215.360,127.374 217.096 C 128.389 218.303,130.799 223.033,130.800 223.820 C 130.800 224.051,131.745 225.298,132.900 226.591 C 134.055 227.883,135.900 230.559,137.000 232.536 C 139.481 236.997,140.401 237.764,142.550 237.166 L 144.100 236.735 143.857 234.961 C 143.526 232.547,142.602 230.884,141.504 230.728 C 140.828 230.632,140.247 229.877,139.200 227.730 C 137.754 224.767,136.356 222.967,135.220 222.606 C 134.635 222.421,133.824 220.484,131.333 213.319 C 131.011 212.394,130.148 211.111,129.415 210.467 C 127.991 209.216,125.271 203.946,124.913 201.744 C 124.795 201.013,124.136 199.768,123.449 198.978 L 122.200 197.541 120.852 198.939 " stroke="none" fill="#3c94dc" fill-rule="evenodd"></path><path id="path3" d="M230.316 93.946 C 227.195 94.760,226.363 95.401,225.427 97.712 C 223.704 101.963,222.356 104.253,221.163 104.958 C 220.475 105.364,218.971 107.167,217.783 109.008 C 216.606 110.833,215.447 112.447,215.209 112.595 C 214.970 112.742,213.690 115.026,212.365 117.670 C 211.006 120.381,209.270 123.191,208.384 124.113 C 207.448 125.087,206.307 126.971,205.561 128.774 C 204.872 130.438,203.435 132.984,202.368 134.430 C 201.301 135.877,199.994 137.996,199.464 139.141 C 198.758 140.665,197.925 141.634,196.350 142.762 C 195.167 143.609,193.803 145.009,193.319 145.872 C 192.023 148.181,190.970 149.039,190.208 148.406 C 189.687 147.974,189.600 148.076,189.600 149.124 C 189.600 151.560,193.038 150.636,195.184 147.623 C 195.662 146.951,196.828 145.869,197.774 145.218 C 198.720 144.567,200.089 143.081,200.814 141.917 C 201.540 140.753,203.013 138.885,204.087 137.767 C 205.769 136.016,206.225 135.163,207.383 131.595 C 208.519 128.092,208.970 127.236,210.313 126.028 C 211.186 125.243,212.472 123.425,213.171 121.988 C 213.870 120.551,215.290 118.467,216.328 117.356 C 217.747 115.836,218.488 114.550,219.321 112.157 C 220.286 109.384,220.664 108.801,222.281 107.589 C 223.301 106.825,224.278 105.930,224.452 105.600 C 224.625 105.270,225.252 103.969,225.844 102.709 C 227.116 100.004,230.510 96.433,232.785 95.407 C 236.398 93.778,234.735 92.794,230.316 93.946 M188.615 102.946 C 187.326 104.319,186.024 105.275,185.000 105.599 C 182.547 106.378,181.386 107.059,179.191 109.008 C 178.081 109.994,177.011 110.800,176.814 110.800 C 176.616 110.800,174.922 112.220,173.049 113.955 C 171.176 115.690,168.419 117.924,166.922 118.920 C 165.421 119.918,163.636 121.531,162.944 122.515 C 162.252 123.497,160.992 124.694,160.144 125.175 C 159.149 125.739,157.993 127.001,156.891 128.725 C 155.952 130.196,154.319 132.412,153.263 133.649 C 151.038 136.255,149.979 138.526,148.618 143.613 C 148.080 145.624,147.117 148.108,146.479 149.134 C 144.786 151.856,144.508 152.831,143.716 158.800 C 142.837 165.433,142.735 187.161,143.529 199.000 C 143.809 203.180,144.196 209.210,144.389 212.400 C 144.582 215.590,145.021 219.190,145.365 220.400 C 146.515 224.444,145.869 231.015,144.183 232.414 C 143.578 232.916,143.699 236.198,144.347 236.858 C 145.357 237.886,147.254 237.626,148.607 236.273 L 150.000 234.880 149.986 228.140 C 149.978 224.067,149.743 220.134,149.394 218.200 C 149.076 216.440,148.812 213.556,148.808 211.792 C 148.803 209.836,148.488 207.457,148.000 205.697 C 147.552 204.082,147.200 201.581,147.200 200.021 C 147.200 198.486,146.840 195.687,146.400 193.800 C 144.711 186.554,145.362 163.981,147.398 159.200 C 148.025 157.729,148.427 156.192,150.623 146.886 C 151.871 141.594,152.928 138.800,153.681 138.800 C 153.997 138.800,154.732 137.699,157.399 133.232 C 159.482 129.744,166.970 122.392,171.993 118.903 C 173.200 118.065,174.385 116.981,174.629 116.493 C 175.324 115.098,176.478 113.977,178.038 113.181 C 179.465 112.452,182.000 109.909,182.000 109.205 C 182.000 109.003,182.675 108.541,183.500 108.179 C 184.325 107.817,185.641 107.186,186.425 106.777 C 187.208 106.368,188.648 105.913,189.625 105.765 C 193.290 105.210,194.491 100.934,191.015 100.813 C 190.804 100.806,189.724 101.766,188.615 102.946 M118.491 204.890 C 114.216 210.042,116.563 242.940,121.825 251.600 C 122.560 252.810,123.635 255.240,124.214 257.000 C 125.440 260.730,125.966 261.634,128.171 263.800 C 129.615 265.219,129.885 265.792,130.546 268.857 L 131.292 272.313 130.228 276.442 C 129.643 278.714,128.609 281.658,127.930 282.986 C 125.894 286.971,124.801 290.661,124.795 293.570 C 124.791 295.384,124.284 298.062,123.161 302.200 C 122.036 306.345,121.427 309.560,121.193 312.600 C 121.007 315.020,120.575 318.080,120.234 319.400 C 118.768 325.064,119.991 331.200,122.586 331.200 C 122.862 331.200,123.725 331.632,124.502 332.160 L 125.916 333.119 126.157 331.916 C 126.342 330.991,126.167 330.438,125.399 329.526 C 124.441 328.388,124.014 325.442,124.337 322.200 C 124.381 321.760,124.581 317.605,124.781 312.967 C 125.092 305.782,125.327 303.763,126.373 299.316 C 127.048 296.445,127.600 293.832,127.600 293.509 C 127.600 293.185,128.210 291.768,128.956 290.360 C 130.448 287.544,130.761 286.575,132.175 280.400 C 132.704 278.090,133.504 275.346,133.953 274.303 L 134.769 272.406 133.387 268.189 C 131.674 262.958,131.248 262.132,129.148 259.948 C 127.089 257.807,125.690 254.854,125.154 251.519 C 124.572 247.899,124.081 246.498,122.466 243.857 C 120.337 240.376,119.626 233.999,119.625 218.400 C 119.624 206.383,119.407 203.787,118.491 204.890 " stroke="none" fill="#dc943c" fill-rule="evenodd"></path><path id="path4" d="M226.830 93.101 C 225.365 93.848,225.359 93.857,223.865 97.200 C 223.315 98.430,221.850 100.478,220.541 101.845 C 219.253 103.190,217.660 105.211,217.000 106.337 C 216.340 107.463,215.614 108.388,215.386 108.392 C 214.581 108.407,212.360 111.815,211.734 113.994 C 210.924 116.813,210.369 117.870,208.795 119.600 C 206.943 121.634,205.035 124.724,204.305 126.870 C 203.910 128.032,203.059 129.291,202.057 130.196 C 201.170 130.997,200.230 132.316,199.967 133.126 C 198.681 137.099,196.660 140.152,194.286 141.707 C 193.131 142.464,191.600 145.092,191.600 146.317 C 191.600 147.461,191.157 147.664,190.132 146.992 C 188.917 146.196,188.815 147.128,190.000 148.200 C 190.979 149.086,191.863 148.466,193.319 145.872 C 193.803 145.009,195.167 143.609,196.350 142.762 C 197.925 141.634,198.758 140.665,199.464 139.141 C 199.994 137.996,201.301 135.877,202.368 134.430 C 203.435 132.984,204.872 130.438,205.561 128.774 C 206.307 126.971,207.448 125.087,208.384 124.113 C 209.270 123.191,211.006 120.381,212.365 117.670 C 213.690 115.026,214.970 112.742,215.209 112.595 C 215.447 112.447,216.606 110.833,217.783 109.008 C 218.971 107.167,220.475 105.364,221.163 104.958 C 222.351 104.256,223.295 102.655,225.547 97.519 C 227.172 93.812,229.597 93.232,243.800 93.156 C 249.520 93.126,255.460 92.971,257.000 92.813 C 258.619 92.647,253.138 92.500,244.000 92.464 C 229.671 92.407,228.072 92.466,226.830 93.101 M189.349 99.776 C 188.660 100.075,187.760 100.801,187.349 101.389 C 185.545 103.963,184.955 104.421,182.688 105.003 C 179.448 105.834,177.618 106.856,175.473 109.032 C 174.453 110.066,172.766 111.472,171.723 112.156 C 170.680 112.840,169.321 114.154,168.703 115.076 C 167.936 116.220,166.906 117.070,165.454 117.757 C 163.091 118.875,162.570 119.383,161.384 121.727 C 160.806 122.868,159.988 123.649,158.584 124.400 C 156.971 125.262,156.382 125.890,155.436 127.766 C 154.667 129.287,153.766 130.390,152.785 131.009 C 150.536 132.429,149.697 133.763,148.375 138.018 C 147.695 140.208,146.806 142.232,146.341 142.653 C 141.264 147.244,140.225 173.118,143.073 224.012 C 143.193 226.169,143.104 228.485,142.866 229.345 C 142.416 230.977,142.946 232.941,143.769 232.689 C 145.609 232.124,146.599 224.844,145.413 220.600 C 145.044 219.280,144.583 215.590,144.390 212.400 C 144.196 209.210,143.809 203.180,143.529 199.000 C 142.735 187.161,142.837 165.433,143.716 158.800 C 144.508 152.831,144.786 151.856,146.479 149.134 C 147.117 148.108,148.080 145.624,148.618 143.613 C 149.979 138.526,151.038 136.255,153.263 133.649 C 154.319 132.412,155.952 130.196,156.891 128.725 C 157.993 127.001,159.149 125.739,160.144 125.175 C 160.992 124.694,162.252 123.497,162.944 122.515 C 163.636 121.531,165.421 119.918,166.922 118.920 C 168.419 117.924,171.176 115.690,173.049 113.955 C 174.922 112.220,176.611 110.800,176.804 110.800 C 176.996 110.800,178.177 109.904,179.428 108.810 C 181.328 107.147,185.071 105.200,186.367 105.200 C 186.552 105.200,187.368 104.390,188.179 103.400 C 190.248 100.874,190.966 100.558,192.280 101.591 C 194.037 102.973,194.540 101.821,192.815 100.367 C 191.251 99.049,191.085 99.020,189.349 99.776 M259.000 163.600 C 258.853 163.838,259.290 163.989,260.076 163.972 C 261.179 163.948,261.267 163.886,260.600 163.600 C 259.515 163.134,259.288 163.134,259.000 163.600 M227.682 170.100 C 227.169 170.718,247.561 170.599,248.180 169.980 C 248.420 169.740,244.794 169.600,238.329 169.600 C 230.632 169.600,227.995 169.724,227.682 170.100 M215.467 175.867 C 214.920 176.414,215.231 176.683,216.195 176.499 C 216.743 176.394,217.092 176.149,216.972 175.954 C 216.714 175.537,215.847 175.487,215.467 175.867 M221.733 186.600 C 221.905 187.115,244.786 187.324,250.000 186.858 C 252.929 186.597,250.112 186.483,237.700 186.360 C 227.074 186.254,221.645 186.336,221.733 186.600 M114.884 201.900 C 111.722 209.273,111.833 230.276,115.067 236.529 C 115.736 237.823,116.224 239.851,117.802 247.883 C 118.880 253.366,119.385 254.566,121.570 256.817 C 122.653 257.933,123.368 259.234,124.030 261.295 C 124.544 262.893,125.355 264.591,125.833 265.069 C 129.961 269.198,130.222 272.754,126.787 278.068 C 125.924 279.403,125.122 281.149,125.005 281.948 C 124.888 282.747,124.520 284.930,124.187 286.800 C 123.854 288.670,123.325 291.980,123.012 294.156 C 122.558 297.308,122.245 298.324,121.470 299.156 C 119.238 301.553,118.853 303.106,118.388 311.600 C 118.177 315.450,117.888 320.623,117.746 323.095 C 117.357 329.849,118.456 332.073,122.824 333.370 C 123.876 333.682,125.111 334.138,125.569 334.383 C 126.026 334.628,126.400 334.666,126.400 334.468 C 126.400 333.661,124.719 332.054,123.265 331.473 C 119.661 330.031,118.588 325.759,120.234 319.400 C 120.575 318.080,121.007 315.020,121.193 312.600 C 121.427 309.560,122.036 306.345,123.161 302.200 C 124.284 298.062,124.791 295.384,124.795 293.570 C 124.801 290.661,125.894 286.971,127.930 282.986 C 128.609 281.658,129.643 278.714,130.228 276.442 L 131.292 272.313 130.546 268.857 C 129.885 265.792,129.615 265.219,128.171 263.800 C 125.966 261.634,125.440 260.730,124.214 257.000 C 123.635 255.240,122.560 252.810,121.825 251.600 C 116.838 243.391,114.333 213.375,118.003 205.793 C 118.438 204.894,118.949 203.332,119.138 202.322 L 119.481 200.485 118.040 200.247 C 115.782 199.873,115.744 199.893,114.884 201.900 M215.000 220.010 C 214.414 220.255,214.725 220.351,216.167 220.372 C 217.248 220.387,218.058 220.335,217.967 220.256 C 217.512 219.864,215.708 219.715,215.000 220.010 M184.267 225.867 C 183.605 226.528,184.499 226.591,192.500 226.438 C 198.394 226.327,200.387 226.184,199.000 225.974 C 196.491 225.593,184.626 225.507,184.267 225.867 M196.532 242.600 C 196.711 243.136,210.007 243.353,210.532 242.828 C 210.788 242.572,208.405 242.395,203.662 242.318 C 198.946 242.241,196.446 242.340,196.532 242.600 M153.067 275.867 C 152.920 276.013,152.800 276.238,152.800 276.367 C 152.800 276.780,185.351 276.409,185.769 275.991 C 186.024 275.736,180.438 275.600,169.747 275.600 C 160.719 275.600,153.213 275.720,153.067 275.867 " stroke="none" fill="#fcb464" fill-rule="evenodd"></path></g></svg>